<mxfile host="app.diagrams.net" modified="2020-12-03T08:12:36.066Z" agent="5.0 (Windows NT 10.0; Win64; x64) AppleWebKit/537.36 (KHTML, like Gecko) Chrome/86.0.4240.198 Safari/537.36" etag="6i6hj0x1Uf-SbaqteigX" version="13.10.6" type="github">
  <diagram id="GNU3i8hCxYjH3E0Nk9u4" name="Page-1">
    <mxGraphModel dx="1673" dy="896" grid="1" gridSize="10" guides="1" tooltips="1" connect="1" arrows="1" fold="1" page="1" pageScale="1" pageWidth="850" pageHeight="1100" math="0" shadow="0">
      <root>
        <mxCell id="0" />
        <mxCell id="1" parent="0" />
        <mxCell id="FXCXVvDxTQtwc45PbP1s-120" style="edgeStyle=orthogonalEdgeStyle;rounded=0;orthogonalLoop=1;jettySize=auto;html=1;startArrow=block;startFill=1;endArrow=block;endFill=1;" parent="1" source="FXCXVvDxTQtwc45PbP1s-93" target="FXCXVvDxTQtwc45PbP1s-94" edge="1">
          <mxGeometry relative="1" as="geometry" />
        </mxCell>
        <mxCell id="FXCXVvDxTQtwc45PbP1s-121" style="edgeStyle=orthogonalEdgeStyle;rounded=0;orthogonalLoop=1;jettySize=auto;html=1;startArrow=block;startFill=1;endArrow=block;endFill=1;" parent="1" source="FXCXVvDxTQtwc45PbP1s-94" target="FXCXVvDxTQtwc45PbP1s-95" edge="1">
          <mxGeometry relative="1" as="geometry" />
        </mxCell>
        <mxCell id="FXCXVvDxTQtwc45PbP1s-122" style="edgeStyle=orthogonalEdgeStyle;rounded=0;orthogonalLoop=1;jettySize=auto;html=1;endArrow=block;endFill=1;" parent="1" source="FXCXVvDxTQtwc45PbP1s-96" target="FXCXVvDxTQtwc45PbP1s-94" edge="1">
          <mxGeometry relative="1" as="geometry" />
        </mxCell>
        <mxCell id="FXCXVvDxTQtwc45PbP1s-123" style="edgeStyle=orthogonalEdgeStyle;rounded=0;orthogonalLoop=1;jettySize=auto;html=1;startArrow=block;startFill=1;endArrow=block;endFill=1;entryX=1.002;entryY=0.156;entryDx=0;entryDy=0;entryPerimeter=0;" parent="1" source="FXCXVvDxTQtwc45PbP1s-103" target="FXCXVvDxTQtwc45PbP1s-94" edge="1">
          <mxGeometry relative="1" as="geometry">
            <Array as="points">
              <mxPoint x="233.5" y="308.5" />
              <mxPoint x="233.5" y="388.5" />
            </Array>
            <mxPoint x="223.5" y="389.5" as="targetPoint" />
          </mxGeometry>
        </mxCell>
        <mxCell id="FXCXVvDxTQtwc45PbP1s-124" style="edgeStyle=orthogonalEdgeStyle;rounded=0;orthogonalLoop=1;jettySize=auto;html=1;entryX=0.82;entryY=1.023;entryDx=0;entryDy=0;entryPerimeter=0;startArrow=block;startFill=1;" parent="1" source="FXCXVvDxTQtwc45PbP1s-100" target="FXCXVvDxTQtwc45PbP1s-94" edge="1">
          <mxGeometry relative="1" as="geometry">
            <Array as="points">
              <mxPoint x="202.5" y="489.5" />
              <mxPoint x="202.5" y="459.5" />
            </Array>
          </mxGeometry>
        </mxCell>
        <mxCell id="FXCXVvDxTQtwc45PbP1s-126" style="edgeStyle=orthogonalEdgeStyle;rounded=0;orthogonalLoop=1;jettySize=auto;html=1;endArrow=none;endFill=0;" parent="1" target="FXCXVvDxTQtwc45PbP1s-103" edge="1">
          <mxGeometry relative="1" as="geometry">
            <Array as="points">
              <mxPoint x="533.5" y="419.5" />
              <mxPoint x="723.5" y="419.5" />
            </Array>
            <mxPoint x="533.5" y="459.5" as="sourcePoint" />
          </mxGeometry>
        </mxCell>
        <mxCell id="FXCXVvDxTQtwc45PbP1s-127" style="edgeStyle=orthogonalEdgeStyle;rounded=0;orthogonalLoop=1;jettySize=auto;html=1;endArrow=none;endFill=0;" parent="1" target="FXCXVvDxTQtwc45PbP1s-103" edge="1">
          <mxGeometry relative="1" as="geometry">
            <Array as="points">
              <mxPoint x="643.5" y="419.5" />
              <mxPoint x="723.5" y="419.5" />
            </Array>
            <mxPoint x="643.4705882352941" y="461.53409129366287" as="sourcePoint" />
          </mxGeometry>
        </mxCell>
        <mxCell id="FXCXVvDxTQtwc45PbP1s-128" style="edgeStyle=orthogonalEdgeStyle;rounded=0;orthogonalLoop=1;jettySize=auto;html=1;endArrow=none;endFill=0;" parent="1" target="FXCXVvDxTQtwc45PbP1s-103" edge="1">
          <mxGeometry relative="1" as="geometry">
            <Array as="points">
              <mxPoint x="833.5" y="419.5" />
              <mxPoint x="723.5" y="419.5" />
            </Array>
            <mxPoint x="833.5" y="459.5" as="sourcePoint" />
          </mxGeometry>
        </mxCell>
        <mxCell id="FXCXVvDxTQtwc45PbP1s-129" style="edgeStyle=orthogonalEdgeStyle;rounded=0;orthogonalLoop=1;jettySize=auto;html=1;endArrow=none;endFill=0;" parent="1" target="FXCXVvDxTQtwc45PbP1s-103" edge="1">
          <mxGeometry relative="1" as="geometry">
            <Array as="points">
              <mxPoint x="973.5" y="419.5" />
              <mxPoint x="723.5" y="419.5" />
            </Array>
            <mxPoint x="973.5" y="459.5" as="sourcePoint" />
          </mxGeometry>
        </mxCell>
        <mxCell id="FXCXVvDxTQtwc45PbP1s-130" style="edgeStyle=orthogonalEdgeStyle;rounded=0;orthogonalLoop=1;jettySize=auto;html=1;endArrow=none;endFill=0;" parent="1" source="FXCXVvDxTQtwc45PbP1s-104" edge="1">
          <mxGeometry relative="1" as="geometry">
            <Array as="points">
              <mxPoint x="723.5" y="579.5" />
              <mxPoint x="533.5" y="579.5" />
            </Array>
            <mxPoint x="533.5" y="519.5" as="targetPoint" />
          </mxGeometry>
        </mxCell>
        <mxCell id="FXCXVvDxTQtwc45PbP1s-131" style="edgeStyle=orthogonalEdgeStyle;rounded=0;orthogonalLoop=1;jettySize=auto;html=1;endArrow=none;endFill=0;" parent="1" source="FXCXVvDxTQtwc45PbP1s-104" edge="1">
          <mxGeometry relative="1" as="geometry">
            <Array as="points">
              <mxPoint x="723.5" y="579.5" />
              <mxPoint x="633.5" y="579.5" />
            </Array>
            <mxPoint x="634" y="520" as="targetPoint" />
          </mxGeometry>
        </mxCell>
        <mxCell id="FXCXVvDxTQtwc45PbP1s-132" style="edgeStyle=orthogonalEdgeStyle;rounded=0;orthogonalLoop=1;jettySize=auto;html=1;endArrow=none;endFill=0;" parent="1" source="FXCXVvDxTQtwc45PbP1s-104" edge="1">
          <mxGeometry relative="1" as="geometry">
            <Array as="points">
              <mxPoint x="723.5" y="579.5" />
              <mxPoint x="833.5" y="579.5" />
            </Array>
            <mxPoint x="833.5" y="519.5" as="targetPoint" />
          </mxGeometry>
        </mxCell>
        <mxCell id="FXCXVvDxTQtwc45PbP1s-133" style="edgeStyle=orthogonalEdgeStyle;rounded=0;orthogonalLoop=1;jettySize=auto;html=1;endArrow=none;endFill=0;" parent="1" source="FXCXVvDxTQtwc45PbP1s-104" edge="1">
          <mxGeometry relative="1" as="geometry">
            <Array as="points">
              <mxPoint x="723.5" y="579.5" />
              <mxPoint x="973.5" y="579.5" />
            </Array>
            <mxPoint x="973.5" y="519.5" as="targetPoint" />
          </mxGeometry>
        </mxCell>
        <mxCell id="FXCXVvDxTQtwc45PbP1s-134" style="edgeStyle=orthogonalEdgeStyle;rounded=0;orthogonalLoop=1;jettySize=auto;html=1;startArrow=block;startFill=1;endArrow=block;endFill=1;" parent="1" source="FXCXVvDxTQtwc45PbP1s-95" target="FXCXVvDxTQtwc45PbP1s-97" edge="1">
          <mxGeometry relative="1" as="geometry" />
        </mxCell>
        <mxCell id="FXCXVvDxTQtwc45PbP1s-135" style="edgeStyle=orthogonalEdgeStyle;rounded=0;orthogonalLoop=1;jettySize=auto;html=1;endArrow=none;endFill=0;" parent="1" target="FXCXVvDxTQtwc45PbP1s-104" edge="1">
          <mxGeometry relative="1" as="geometry">
            <Array as="points">
              <mxPoint x="523.5" y="689.5" />
              <mxPoint x="723.5" y="689.5" />
            </Array>
            <mxPoint x="523.5" y="729.5" as="sourcePoint" />
          </mxGeometry>
        </mxCell>
        <mxCell id="FXCXVvDxTQtwc45PbP1s-136" style="edgeStyle=orthogonalEdgeStyle;rounded=0;orthogonalLoop=1;jettySize=auto;html=1;endArrow=none;endFill=0;" parent="1" target="FXCXVvDxTQtwc45PbP1s-104" edge="1">
          <mxGeometry relative="1" as="geometry">
            <Array as="points">
              <mxPoint x="623.5" y="689.5" />
              <mxPoint x="723.5" y="689.5" />
            </Array>
            <mxPoint x="623.5" y="729.5" as="sourcePoint" />
          </mxGeometry>
        </mxCell>
        <mxCell id="FXCXVvDxTQtwc45PbP1s-137" style="edgeStyle=orthogonalEdgeStyle;rounded=0;orthogonalLoop=1;jettySize=auto;html=1;endArrow=none;endFill=0;" parent="1" target="FXCXVvDxTQtwc45PbP1s-104" edge="1">
          <mxGeometry relative="1" as="geometry">
            <Array as="points">
              <mxPoint x="833.5" y="689.5" />
              <mxPoint x="723.5" y="689.5" />
            </Array>
            <mxPoint x="834" y="730" as="sourcePoint" />
          </mxGeometry>
        </mxCell>
        <mxCell id="FXCXVvDxTQtwc45PbP1s-138" style="edgeStyle=orthogonalEdgeStyle;rounded=0;orthogonalLoop=1;jettySize=auto;html=1;endArrow=none;endFill=0;" parent="1" target="FXCXVvDxTQtwc45PbP1s-104" edge="1">
          <mxGeometry relative="1" as="geometry">
            <Array as="points">
              <mxPoint x="973.5" y="689.5" />
              <mxPoint x="723.5" y="689.5" />
            </Array>
            <mxPoint x="974" y="730" as="sourcePoint" />
          </mxGeometry>
        </mxCell>
        <mxCell id="FXCXVvDxTQtwc45PbP1s-139" style="edgeStyle=orthogonalEdgeStyle;rounded=0;orthogonalLoop=1;jettySize=auto;html=1;endArrow=block;endFill=1;startArrow=block;startFill=1;" parent="1" source="FXCXVvDxTQtwc45PbP1s-114" target="FXCXVvDxTQtwc45PbP1s-118" edge="1">
          <mxGeometry relative="1" as="geometry">
            <Array as="points">
              <mxPoint x="1413.5" y="629.5" />
              <mxPoint x="1413.5" y="629.5" />
            </Array>
          </mxGeometry>
        </mxCell>
        <mxCell id="FXCXVvDxTQtwc45PbP1s-141" style="edgeStyle=orthogonalEdgeStyle;rounded=0;orthogonalLoop=1;jettySize=auto;html=1;endArrow=block;endFill=1;startArrow=block;startFill=1;" parent="1" source="FXCXVvDxTQtwc45PbP1s-118" target="FXCXVvDxTQtwc45PbP1s-117" edge="1">
          <mxGeometry relative="1" as="geometry" />
        </mxCell>
        <mxCell id="FXCXVvDxTQtwc45PbP1s-143" value="Subnet 10.10.20.0/24" style="swimlane;fontStyle=0;horizontal=1;collapsible=0;startSize=28;swimlaneLine=0;swimlaneFillColor=none;fillColor=none;rounded=0;whiteSpace=wrap;html=1;absoluteArcSize=1;arcSize=12;strokeColor=#2A8838;verticalAlign=top;align=left;spacingLeft=30;spacingTop=1;dashed=0;strokeWidth=1;" parent="1" vertex="1">
          <mxGeometry x="413.5" y="639.5" width="260" height="200" as="geometry" />
        </mxCell>
        <mxCell id="FXCXVvDxTQtwc45PbP1s-144" value="" style="aspect=fixed;perimeter=ellipsePerimeter;html=1;align=center;shadow=0;dashed=0;fontColor=#4277BB;labelBackgroundColor=#ffffff;fontSize=12;spacingTop=3;image;image=img/lib/ibm/vpc/SubnetTag.svg;part=1;" parent="FXCXVvDxTQtwc45PbP1s-143" vertex="1">
          <mxGeometry width="30" height="40" as="geometry" />
        </mxCell>
        <mxCell id="FXCXVvDxTQtwc45PbP1s-147" value="Subnet 10.20.40.0/24" style="swimlane;fontStyle=0;horizontal=1;collapsible=0;startSize=28;swimlaneLine=0;swimlaneFillColor=none;fillColor=none;rounded=0;whiteSpace=wrap;html=1;absoluteArcSize=1;arcSize=12;strokeColor=#2A8838;verticalAlign=top;align=left;spacingLeft=30;spacingTop=1;dashed=0;strokeWidth=1;" parent="1" vertex="1">
          <mxGeometry x="783.5" y="639.5" width="250" height="200" as="geometry" />
        </mxCell>
        <mxCell id="FXCXVvDxTQtwc45PbP1s-148" value="" style="aspect=fixed;perimeter=ellipsePerimeter;html=1;align=center;shadow=0;dashed=0;fontColor=#4277BB;labelBackgroundColor=#ffffff;fontSize=12;spacingTop=3;image;image=img/lib/ibm/vpc/SubnetTag.svg;part=1;" parent="FXCXVvDxTQtwc45PbP1s-147" vertex="1">
          <mxGeometry width="30" height="40" as="geometry" />
        </mxCell>
        <mxCell id="FXCXVvDxTQtwc45PbP1s-149" value="Subnet 10.10.10.0/24" style="swimlane;fontStyle=0;horizontal=1;collapsible=0;startSize=28;swimlaneLine=0;swimlaneFillColor=none;fillColor=none;rounded=0;whiteSpace=wrap;html=1;absoluteArcSize=1;arcSize=12;strokeColor=#2A8838;verticalAlign=top;align=left;spacingLeft=30;spacingTop=1;dashed=0;strokeWidth=1;" parent="1" vertex="1">
          <mxGeometry x="413.5" y="369.5" width="260" height="220" as="geometry" />
        </mxCell>
        <mxCell id="FXCXVvDxTQtwc45PbP1s-150" value="" style="aspect=fixed;perimeter=ellipsePerimeter;html=1;align=center;shadow=0;dashed=0;fontColor=#4277BB;labelBackgroundColor=#ffffff;fontSize=12;spacingTop=3;image;image=img/lib/ibm/vpc/SubnetTag.svg;part=1;" parent="FXCXVvDxTQtwc45PbP1s-149" vertex="1">
          <mxGeometry width="30" height="40" as="geometry" />
        </mxCell>
        <mxCell id="FXCXVvDxTQtwc45PbP1s-151" value="Subnet 10.20.30.0/24" style="swimlane;fontStyle=0;horizontal=1;collapsible=0;startSize=28;swimlaneLine=0;swimlaneFillColor=none;fillColor=none;rounded=0;whiteSpace=wrap;html=1;absoluteArcSize=1;arcSize=12;strokeColor=#2A8838;verticalAlign=top;align=left;spacingLeft=30;spacingTop=1;dashed=0;strokeWidth=1;" parent="1" vertex="1">
          <mxGeometry x="783.5" y="369.5" width="250" height="220" as="geometry" />
        </mxCell>
        <mxCell id="FXCXVvDxTQtwc45PbP1s-152" value="" style="aspect=fixed;perimeter=ellipsePerimeter;html=1;align=center;shadow=0;dashed=0;fontColor=#4277BB;labelBackgroundColor=#ffffff;fontSize=12;spacingTop=3;image;image=img/lib/ibm/vpc/SubnetTag.svg;part=1;" parent="FXCXVvDxTQtwc45PbP1s-151" vertex="1">
          <mxGeometry width="30" height="40" as="geometry" />
        </mxCell>
        <mxCell id="FXCXVvDxTQtwc45PbP1s-153" value="Zone 1 10.10.0.0/16" style="swimlane;fontStyle=0;horizontal=1;collapsible=0;startSize=28;swimlaneLine=0;swimlaneFillColor=none;fillColor=none;rounded=0;whiteSpace=wrap;html=1;absoluteArcSize=1;arcSize=0;strokeColor=#00882B;verticalAlign=top;align=left;spacingLeft=30;dashed=1;strokeWidth=1;container=1;" parent="1" vertex="1">
          <mxGeometry x="274" y="270" width="1155" height="700" as="geometry" />
        </mxCell>
        <mxCell id="FXCXVvDxTQtwc45PbP1s-154" value="" style="aspect=fixed;perimeter=ellipsePerimeter;html=1;align=center;shadow=0;dashed=0;fontColor=#4277BB;labelBackgroundColor=#ffffff;fontSize=12;spacingTop=3;image;image=img/lib/ibm/vpc/ZoneTag.svg;part=1;" parent="FXCXVvDxTQtwc45PbP1s-153" vertex="1">
          <mxGeometry width="30" height="30" as="geometry" />
        </mxCell>
        <mxCell id="FXCXVvDxTQtwc45PbP1s-159" value="Security&lt;br&gt;Group 2" style="rounded=0;whiteSpace=wrap;html=1;absoluteArcSize=1;arcSize=0;strokeColor=#FD0000;fillColor=none;verticalAlign=top;align=center;spacingLeft=5;dashed=1;dashPattern=5 2;labelPosition=center;verticalLabelPosition=middle;strokeWidth=2;" parent="FXCXVvDxTQtwc45PbP1s-153" vertex="1">
          <mxGeometry x="150" y="440" width="600" height="120" as="geometry" />
        </mxCell>
        <mxCell id="FXCXVvDxTQtwc45PbP1s-160" value="Security&lt;br&gt;Group 1" style="rounded=0;whiteSpace=wrap;html=1;absoluteArcSize=1;arcSize=0;strokeColor=#FD0000;fillColor=none;verticalAlign=top;align=center;spacingLeft=5;dashed=1;dashPattern=5 2;labelPosition=center;verticalLabelPosition=middle;strokeWidth=2;" parent="FXCXVvDxTQtwc45PbP1s-153" vertex="1">
          <mxGeometry x="150" y="170" width="600" height="120" as="geometry" />
        </mxCell>
        <mxCell id="FXCXVvDxTQtwc45PbP1s-100" value="Floating&lt;br&gt;IP" style="aspect=fixed;perimeter=ellipsePerimeter;html=1;align=center;shadow=0;dashed=0;fontColor=#4277BB;labelBackgroundColor=#ffffff;fontSize=12;spacingTop=3;image;image=img/lib/ibm/vpc/FloatingIP.svg;flipH=1;" parent="FXCXVvDxTQtwc45PbP1s-153" vertex="1">
          <mxGeometry x="170" y="190" width="60" height="60" as="geometry" />
        </mxCell>
        <mxCell id="MIL3UYVcRwOKUu0OYdYa-2" value="Amazon EC2" style="outlineConnect=0;fontColor=#232F3E;gradientColor=none;strokeColor=#ffffff;fillColor=#232F3E;dashed=0;verticalLabelPosition=middle;verticalAlign=bottom;align=center;html=1;whiteSpace=wrap;fontSize=10;fontStyle=1;spacing=3;shape=mxgraph.aws4.productIcon;prIcon=mxgraph.aws4.ec2;" vertex="1" parent="FXCXVvDxTQtwc45PbP1s-153">
          <mxGeometry x="230" y="190" width="64" height="80" as="geometry" />
        </mxCell>
        <mxCell id="MIL3UYVcRwOKUu0OYdYa-3" value="Amazon EC2" style="outlineConnect=0;fontColor=#232F3E;gradientColor=none;strokeColor=#ffffff;fillColor=#232F3E;dashed=0;verticalLabelPosition=middle;verticalAlign=bottom;align=center;html=1;whiteSpace=wrap;fontSize=10;fontStyle=1;spacing=3;shape=mxgraph.aws4.productIcon;prIcon=mxgraph.aws4.ec2;" vertex="1" parent="FXCXVvDxTQtwc45PbP1s-153">
          <mxGeometry x="326" y="190" width="64" height="80" as="geometry" />
        </mxCell>
        <mxCell id="MIL3UYVcRwOKUu0OYdYa-4" value="Amazon EC2" style="outlineConnect=0;fontColor=#232F3E;gradientColor=none;strokeColor=#ffffff;fillColor=#232F3E;dashed=0;verticalLabelPosition=middle;verticalAlign=bottom;align=center;html=1;whiteSpace=wrap;fontSize=10;fontStyle=1;spacing=3;shape=mxgraph.aws4.productIcon;prIcon=mxgraph.aws4.ec2;" vertex="1" parent="FXCXVvDxTQtwc45PbP1s-153">
          <mxGeometry x="528" y="190" width="64" height="80" as="geometry" />
        </mxCell>
        <mxCell id="MIL3UYVcRwOKUu0OYdYa-5" value="Amazon EC2" style="outlineConnect=0;fontColor=#232F3E;gradientColor=none;strokeColor=#ffffff;fillColor=#232F3E;dashed=0;verticalLabelPosition=middle;verticalAlign=bottom;align=center;html=1;whiteSpace=wrap;fontSize=10;fontStyle=1;spacing=3;shape=mxgraph.aws4.productIcon;prIcon=mxgraph.aws4.ec2;" vertex="1" parent="FXCXVvDxTQtwc45PbP1s-153">
          <mxGeometry x="666" y="190" width="64" height="80" as="geometry" />
        </mxCell>
        <mxCell id="FXCXVvDxTQtwc45PbP1s-170" value="AWS Cloud" style="swimlane;fontStyle=0;horizontal=1;collapsible=0;startSize=28;swimlaneLine=0;swimlaneFillColor=none;fillColor=none;rounded=0;whiteSpace=wrap;html=1;absoluteArcSize=1;arcSize=12;strokeColor=#417CB9;verticalAlign=top;align=left;spacingLeft=30;spacingTop=1;dashed=0;strokeWidth=1;" parent="FXCXVvDxTQtwc45PbP1s-153" vertex="1">
          <mxGeometry x="-35" y="-120" width="1190" height="800" as="geometry" />
        </mxCell>
        <mxCell id="FXCXVvDxTQtwc45PbP1s-171" value="" style="aspect=fixed;perimeter=ellipsePerimeter;html=1;align=center;shadow=0;dashed=0;fontColor=#4277BB;labelBackgroundColor=#ffffff;fontSize=12;spacingTop=3;image;image=img/lib/ibm/vpc/CloudTag.svg;part=1;" parent="FXCXVvDxTQtwc45PbP1s-170" vertex="1">
          <mxGeometry width="30" height="30" as="geometry" />
        </mxCell>
        <mxCell id="8mZ1clYOEjptnx82fnUx-1" value="* Diagram&lt;br&gt;shows VPC&lt;br&gt;enabled for&lt;br&gt;Classic Access." style="text;html=1;resizable=0;points=[];autosize=1;align=center;verticalAlign=top;spacingTop=-4;" parent="FXCXVvDxTQtwc45PbP1s-170" vertex="1">
          <mxGeometry x="1090" y="560" width="100" height="50" as="geometry" />
        </mxCell>
        <mxCell id="MIL3UYVcRwOKUu0OYdYa-7" value="Amazon RDS" style="outlineConnect=0;fontColor=#232F3E;gradientColor=none;strokeColor=#ffffff;fillColor=#232F3E;dashed=0;verticalLabelPosition=middle;verticalAlign=bottom;align=center;html=1;whiteSpace=wrap;fontSize=10;fontStyle=1;spacing=3;shape=mxgraph.aws4.productIcon;prIcon=mxgraph.aws4.rds;" vertex="1" parent="FXCXVvDxTQtwc45PbP1s-153">
          <mxGeometry x="310" y="450" width="80" height="100" as="geometry" />
        </mxCell>
        <mxCell id="MIL3UYVcRwOKUu0OYdYa-8" value="Amazon Elastic Block Store" style="outlineConnect=0;fontColor=#232F3E;gradientColor=none;strokeColor=#ffffff;fillColor=#232F3E;dashed=0;verticalLabelPosition=middle;verticalAlign=bottom;align=center;html=1;whiteSpace=wrap;fontSize=10;fontStyle=1;spacing=3;shape=mxgraph.aws4.productIcon;prIcon=mxgraph.aws4.elastic_block_store;" vertex="1" parent="FXCXVvDxTQtwc45PbP1s-153">
          <mxGeometry x="214" y="450" width="80" height="110" as="geometry" />
        </mxCell>
        <mxCell id="MIL3UYVcRwOKUu0OYdYa-24" value="Amazon Elastic Block Store" style="outlineConnect=0;fontColor=#232F3E;gradientColor=none;strokeColor=#ffffff;fillColor=#232F3E;dashed=0;verticalLabelPosition=middle;verticalAlign=bottom;align=center;html=1;whiteSpace=wrap;fontSize=10;fontStyle=1;spacing=3;shape=mxgraph.aws4.productIcon;prIcon=mxgraph.aws4.elastic_block_store;" vertex="1" parent="FXCXVvDxTQtwc45PbP1s-153">
          <mxGeometry x="520" y="450" width="80" height="110" as="geometry" />
        </mxCell>
        <mxCell id="MIL3UYVcRwOKUu0OYdYa-25" value="Amazon DynamoDB" style="outlineConnect=0;fontColor=#232F3E;gradientColor=none;strokeColor=#ffffff;fillColor=#232F3E;dashed=0;verticalLabelPosition=middle;verticalAlign=bottom;align=center;html=1;whiteSpace=wrap;fontSize=10;fontStyle=1;spacing=3;shape=mxgraph.aws4.productIcon;prIcon=mxgraph.aws4.dynamodb;" vertex="1" parent="FXCXVvDxTQtwc45PbP1s-153">
          <mxGeometry x="658" y="450" width="80" height="110" as="geometry" />
        </mxCell>
        <mxCell id="FXCXVvDxTQtwc45PbP1s-155" value="Classic&lt;br&gt;DC" style="swimlane;fontStyle=0;horizontal=1;collapsible=0;startSize=28;swimlaneLine=0;swimlaneFillColor=none;fillColor=none;rounded=0;whiteSpace=wrap;html=1;absoluteArcSize=1;arcSize=0;strokeColor=#00882B;verticalAlign=top;align=left;spacingLeft=30;dashed=1;strokeWidth=1;container=1;" parent="1" vertex="1">
          <mxGeometry x="1123.5" y="289.5" width="100" height="470" as="geometry" />
        </mxCell>
        <mxCell id="FXCXVvDxTQtwc45PbP1s-156" value="" style="aspect=fixed;perimeter=ellipsePerimeter;html=1;align=center;shadow=0;dashed=0;fontColor=#4277BB;labelBackgroundColor=#ffffff;fontSize=12;spacingTop=3;image;image=img/lib/ibm/vpc/ZoneTag.svg;part=1;" parent="FXCXVvDxTQtwc45PbP1s-155" vertex="1">
          <mxGeometry width="30" height="30" as="geometry" />
        </mxCell>
        <mxCell id="FXCXVvDxTQtwc45PbP1s-110" value="Classic&lt;br&gt;Load&lt;br&gt;Balancer" style="aspect=fixed;perimeter=ellipsePerimeter;html=1;align=center;shadow=0;dashed=0;fontColor=#4277BB;labelBackgroundColor=#ffffff;fontSize=12;spacingTop=3;image;image=img/lib/ibm/vpc/LoadBalancer.svg;" parent="FXCXVvDxTQtwc45PbP1s-155" vertex="1">
          <mxGeometry x="20" y="190.5" width="60" height="60" as="geometry" />
        </mxCell>
        <mxCell id="FXCXVvDxTQtwc45PbP1s-157" value="Classic Infrastructure" style="swimlane;fontStyle=0;horizontal=1;collapsible=0;startSize=28;swimlaneLine=0;swimlaneFillColor=none;fillColor=none;rounded=0;whiteSpace=wrap;html=1;absoluteArcSize=1;arcSize=0;strokeColor=#4376BB;verticalAlign=top;align=left;spacingLeft=30;dashed=0;strokeWidth=1;container=1;" parent="1" vertex="1">
          <mxGeometry x="1103.5" y="229.5" width="140" height="540" as="geometry" />
        </mxCell>
        <mxCell id="FXCXVvDxTQtwc45PbP1s-158" value="" style="aspect=fixed;perimeter=ellipsePerimeter;html=1;align=center;shadow=0;dashed=0;fontColor=#4277BB;labelBackgroundColor=#ffffff;fontSize=12;spacingTop=3;image;image=img/lib/ibm/vpc/ClassicInfrastructure.svg;part=1;" parent="FXCXVvDxTQtwc45PbP1s-157" vertex="1">
          <mxGeometry width="30" height="30" as="geometry" />
        </mxCell>
        <mxCell id="FXCXVvDxTQtwc45PbP1s-161" value="VPC" style="swimlane;fontStyle=0;horizontal=1;collapsible=0;startSize=28;swimlaneLine=0;swimlaneFillColor=none;fillColor=none;rounded=0;whiteSpace=wrap;html=1;absoluteArcSize=1;arcSize=12;strokeColor=#417CB9;verticalAlign=top;align=left;spacingLeft=30;spacingTop=1;dashed=0;strokeWidth=1;" parent="1" vertex="1">
          <mxGeometry x="263.5" y="229.5" width="810" height="640" as="geometry" />
        </mxCell>
        <mxCell id="FXCXVvDxTQtwc45PbP1s-162" value="" style="aspect=fixed;perimeter=ellipsePerimeter;html=1;align=center;shadow=0;dashed=0;fontColor=#4277BB;labelBackgroundColor=#ffffff;fontSize=12;spacingTop=3;image;image=img/lib/ibm/vpc/VPCTag.svg;part=1;" parent="FXCXVvDxTQtwc45PbP1s-161" vertex="1">
          <mxGeometry width="30" height="30" as="geometry" />
        </mxCell>
        <mxCell id="FXCXVvDxTQtwc45PbP1s-163" value="Region" style="swimlane;fontStyle=0;horizontal=1;collapsible=0;startSize=28;swimlaneLine=0;swimlaneFillColor=none;fillColor=none;rounded=0;whiteSpace=wrap;html=1;absoluteArcSize=1;arcSize=0;strokeColor=#00882B;verticalAlign=top;align=left;spacingLeft=30;dashed=1;strokeWidth=1;container=1;dashPattern=1 1;" parent="1" vertex="1">
          <mxGeometry x="253.5" y="189.5" width="1070" height="720" as="geometry" />
        </mxCell>
        <mxCell id="FXCXVvDxTQtwc45PbP1s-164" value="" style="aspect=fixed;perimeter=ellipsePerimeter;html=1;align=center;shadow=0;dashed=0;fontColor=#4277BB;labelBackgroundColor=#ffffff;fontSize=12;spacingTop=3;image;image=img/lib/ibm/vpc/RegionTag.svg;part=1;" parent="FXCXVvDxTQtwc45PbP1s-163" vertex="1">
          <mxGeometry width="30" height="30" as="geometry" />
        </mxCell>
        <mxCell id="FXCXVvDxTQtwc45PbP1s-167" value="" style="swimlane;fontStyle=0;horizontal=1;collapsible=0;startSize=28;swimlaneLine=0;swimlaneFillColor=none;fillColor=none;rounded=0;whiteSpace=wrap;html=1;absoluteArcSize=1;arcSize=0;strokeColor=#4376BB;verticalAlign=top;align=left;spacingLeft=5;dashed=0;strokeWidth=1;container=1;" parent="1" vertex="1">
          <mxGeometry x="123.5" y="149.5" width="1450" height="800" as="geometry" />
        </mxCell>
        <mxCell id="FXCXVvDxTQtwc45PbP1s-168" value="Public&lt;br&gt;Network" style="aspect=fixed;perimeter=ellipsePerimeter;html=1;align=left;shadow=0;dashed=0;labelBackgroundColor=none;fontSize=12;spacingTop=0;image;image=img/lib/ibm/vpc/PublicTag.svg;part=1;labelPosition=right;verticalLabelPosition=middle;verticalAlign=middle;" parent="FXCXVvDxTQtwc45PbP1s-167" vertex="1">
          <mxGeometry width="30" height="30" as="geometry" />
        </mxCell>
        <mxCell id="FXCXVvDxTQtwc45PbP1s-169" value="Enterprise&lt;br&gt;Network" style="aspect=fixed;perimeter=ellipsePerimeter;html=1;align=left;shadow=0;dashed=0;labelBackgroundColor=none;fontSize=12;spacingTop=0;image;image=img/lib/ibm/vpc/EnterpriseTag.svg;part=1;labelPosition=right;verticalLabelPosition=middle;verticalAlign=middle;" parent="FXCXVvDxTQtwc45PbP1s-167" vertex="1">
          <mxGeometry x="1310" width="30" height="30" as="geometry" />
        </mxCell>
        <mxCell id="FXCXVvDxTQtwc45PbP1s-118" value="Enterprise&lt;br&gt;Applications" style="aspect=fixed;perimeter=ellipsePerimeter;html=1;align=center;shadow=0;dashed=0;fontColor=#4277BB;labelBackgroundColor=#ffffff;fontSize=12;spacingTop=3;image;image=img/lib/ibm/applications/mobile_app.svg;" parent="FXCXVvDxTQtwc45PbP1s-167" vertex="1">
          <mxGeometry x="1350" y="560.5" width="60" height="60" as="geometry" />
        </mxCell>
        <mxCell id="MIL3UYVcRwOKUu0OYdYa-26" value="" style="outlineConnect=0;fontColor=#232F3E;gradientColor=none;fillColor=#232F3E;strokeColor=none;dashed=0;verticalLabelPosition=bottom;verticalAlign=top;align=center;html=1;fontSize=12;fontStyle=0;aspect=fixed;pointerEvents=1;shape=mxgraph.aws4.client;" vertex="1" parent="FXCXVvDxTQtwc45PbP1s-167">
          <mxGeometry x="1341" y="210.5" width="78" height="76" as="geometry" />
        </mxCell>
        <mxCell id="HwulmQ-oOyahczQ6ZAeN-1" style="edgeStyle=orthogonalEdgeStyle;rounded=0;orthogonalLoop=1;jettySize=auto;html=1;endArrow=block;endFill=1;" parent="1" target="FXCXVvDxTQtwc45PbP1s-96" edge="1">
          <mxGeometry relative="1" as="geometry">
            <mxPoint x="413.5" y="409.5" as="sourcePoint" />
            <Array as="points">
              <mxPoint x="413.5" y="409.5" />
            </Array>
          </mxGeometry>
        </mxCell>
        <mxCell id="HwulmQ-oOyahczQ6ZAeN-2" style="edgeStyle=orthogonalEdgeStyle;rounded=0;orthogonalLoop=1;jettySize=auto;html=1;endArrow=block;endFill=1;startArrow=block;startFill=1;" parent="1" source="FXCXVvDxTQtwc45PbP1s-97" edge="1">
          <mxGeometry relative="1" as="geometry">
            <mxPoint x="413.5" y="569.5" as="targetPoint" />
          </mxGeometry>
        </mxCell>
        <mxCell id="HwulmQ-oOyahczQ6ZAeN-7" style="edgeStyle=orthogonalEdgeStyle;rounded=0;orthogonalLoop=1;jettySize=auto;html=1;endArrow=block;endFill=1;startArrow=block;startFill=1;" parent="1" source="FXCXVvDxTQtwc45PbP1s-114" edge="1">
          <mxGeometry relative="1" as="geometry">
            <mxPoint x="1243.5" y="629.5" as="targetPoint" />
          </mxGeometry>
        </mxCell>
        <mxCell id="HwulmQ-oOyahczQ6ZAeN-8" style="edgeStyle=elbowEdgeStyle;rounded=0;orthogonalLoop=1;jettySize=auto;html=1;endArrow=block;endFill=1;startArrow=block;startFill=1;" parent="1" edge="1">
          <mxGeometry relative="1" as="geometry">
            <mxPoint x="1173.5" y="769.5" as="targetPoint" />
            <mxPoint x="1173" y="799.5" as="sourcePoint" />
          </mxGeometry>
        </mxCell>
        <mxCell id="HwulmQ-oOyahczQ6ZAeN-9" style="edgeStyle=orthogonalEdgeStyle;rounded=0;orthogonalLoop=1;jettySize=auto;html=1;endArrow=block;endFill=1;startArrow=block;startFill=1;" parent="1" edge="1">
          <mxGeometry relative="1" as="geometry">
            <mxPoint x="1073.5" y="829.5" as="targetPoint" />
            <mxPoint x="1143" y="829.5" as="sourcePoint" />
          </mxGeometry>
        </mxCell>
        <mxCell id="MIL3UYVcRwOKUu0OYdYa-27" style="edgeStyle=orthogonalEdgeStyle;rounded=0;orthogonalLoop=1;jettySize=auto;html=1;" edge="1" parent="1" source="FXCXVvDxTQtwc45PbP1s-117" target="MIL3UYVcRwOKUu0OYdYa-26">
          <mxGeometry relative="1" as="geometry" />
        </mxCell>
        <mxCell id="FXCXVvDxTQtwc45PbP1s-115" value="Icons" style="" parent="0" />
        <mxCell id="FXCXVvDxTQtwc45PbP1s-93" value="User" style="aspect=fixed;perimeter=ellipsePerimeter;html=1;align=center;shadow=0;dashed=0;fontColor=#4277BB;labelBackgroundColor=#ffffff;fontSize=12;spacingTop=3;image;image=img/lib/ibm/users/user.svg;" parent="FXCXVvDxTQtwc45PbP1s-115" vertex="1">
          <mxGeometry x="153.5" y="219.5" width="60" height="60" as="geometry" />
        </mxCell>
        <mxCell id="FXCXVvDxTQtwc45PbP1s-94" value="Internet" style="aspect=fixed;perimeter=ellipsePerimeter;html=1;align=center;shadow=0;dashed=0;fontColor=#4277BB;labelBackgroundColor=#ffffff;fontSize=12;spacingTop=3;image;image=img/lib/ibm/vpc/Internet.svg;" parent="FXCXVvDxTQtwc45PbP1s-115" vertex="1">
          <mxGeometry x="153.5" y="379.5" width="60" height="60" as="geometry" />
        </mxCell>
        <mxCell id="FXCXVvDxTQtwc45PbP1s-95" value="VPN&lt;br&gt;Connection" style="aspect=fixed;perimeter=ellipsePerimeter;html=1;align=center;shadow=0;dashed=0;fontColor=#4277BB;labelBackgroundColor=#ffffff;fontSize=12;spacingTop=3;image;image=img/lib/ibm/vpc/VPNConnection.svg;" parent="FXCXVvDxTQtwc45PbP1s-115" vertex="1">
          <mxGeometry x="153.5" y="539.5" width="60" height="60" as="geometry" />
        </mxCell>
        <mxCell id="FXCXVvDxTQtwc45PbP1s-96" value="Public&lt;br&gt;Gateway" style="aspect=fixed;perimeter=ellipsePerimeter;html=1;align=center;shadow=0;dashed=0;fontColor=#4277BB;labelBackgroundColor=#ffffff;fontSize=12;spacingTop=3;image;image=img/lib/ibm/vpc/PublicGateway.svg;" parent="FXCXVvDxTQtwc45PbP1s-115" vertex="1">
          <mxGeometry x="288.5" y="379.5" width="60" height="60" as="geometry" />
        </mxCell>
        <mxCell id="FXCXVvDxTQtwc45PbP1s-97" value="VPN&lt;br&gt;Gateway" style="aspect=fixed;perimeter=ellipsePerimeter;html=1;align=center;shadow=0;dashed=0;fontColor=#4277BB;labelBackgroundColor=#ffffff;fontSize=12;spacingTop=3;image;image=img/lib/ibm/vpc/VPNGateway.svg;" parent="FXCXVvDxTQtwc45PbP1s-115" vertex="1">
          <mxGeometry x="288.5" y="539.5" width="60" height="60" as="geometry" />
        </mxCell>
        <mxCell id="FXCXVvDxTQtwc45PbP1s-103" value="Public&lt;br&gt;Load&lt;br&gt;Balancer" style="aspect=fixed;perimeter=ellipsePerimeter;html=1;align=center;shadow=0;dashed=0;fontColor=#4277BB;labelBackgroundColor=#ffffff;fontSize=12;spacingTop=3;image;image=img/lib/ibm/vpc/LoadBalancer.svg;labelPosition=center;verticalLabelPosition=top;verticalAlign=bottom;" parent="FXCXVvDxTQtwc45PbP1s-115" vertex="1">
          <mxGeometry x="693.5" y="278.5" width="60" height="60" as="geometry" />
        </mxCell>
        <mxCell id="FXCXVvDxTQtwc45PbP1s-104" value="Private &lt;br&gt;Load Balancer" style="aspect=fixed;perimeter=ellipsePerimeter;html=1;align=left;shadow=0;dashed=0;fontColor=#4277BB;labelBackgroundColor=#ffffff;fontSize=12;spacingTop=3;image;image=img/lib/ibm/vpc/LoadBalancer.svg;labelPosition=right;verticalLabelPosition=middle;verticalAlign=middle;" parent="FXCXVvDxTQtwc45PbP1s-115" vertex="1">
          <mxGeometry x="693.5" y="588.5" width="60" height="60" as="geometry" />
        </mxCell>
        <mxCell id="FXCXVvDxTQtwc45PbP1s-114" value="Direct&lt;br&gt;Link" style="aspect=fixed;perimeter=ellipsePerimeter;html=1;align=center;shadow=0;dashed=0;fontColor=#4277BB;labelBackgroundColor=#ffffff;fontSize=12;spacingTop=3;image;image=img/lib/ibm/vpc/DirectLink.svg;" parent="FXCXVvDxTQtwc45PbP1s-115" vertex="1">
          <mxGeometry x="1343.5" y="599.5" width="60" height="60" as="geometry" />
        </mxCell>
        <mxCell id="FXCXVvDxTQtwc45PbP1s-117" value="Enterprise&lt;br&gt;User" style="aspect=fixed;perimeter=ellipsePerimeter;html=1;align=center;shadow=0;dashed=0;fontColor=#4277BB;labelBackgroundColor=#ffffff;fontSize=12;spacingTop=3;image;image=img/lib/ibm/users/user.svg;" parent="FXCXVvDxTQtwc45PbP1s-115" vertex="1">
          <mxGeometry x="1473.5" y="510" width="60" height="60" as="geometry" />
        </mxCell>
        <mxCell id="FXCXVvDxTQtwc45PbP1s-172" value="Zone 2 10.20.0.0/16" style="swimlane;fontStyle=0;horizontal=1;collapsible=0;startSize=28;swimlaneLine=0;swimlaneFillColor=none;fillColor=none;rounded=0;whiteSpace=wrap;html=1;absoluteArcSize=1;arcSize=0;strokeColor=#00882B;verticalAlign=top;align=left;spacingLeft=30;dashed=1;strokeWidth=1;container=1;" parent="FXCXVvDxTQtwc45PbP1s-115" vertex="1">
          <mxGeometry x="773.5" y="269.5" width="280" height="590" as="geometry" />
        </mxCell>
        <mxCell id="FXCXVvDxTQtwc45PbP1s-173" value="" style="aspect=fixed;perimeter=ellipsePerimeter;html=1;align=center;shadow=0;dashed=0;fontColor=#4277BB;labelBackgroundColor=#ffffff;fontSize=12;spacingTop=3;image;image=img/lib/ibm/vpc/ZoneTag.svg;part=1;" parent="FXCXVvDxTQtwc45PbP1s-172" vertex="1">
          <mxGeometry width="30" height="30" as="geometry" />
        </mxCell>
      </root>
    </mxGraphModel>
  </diagram>
</mxfile>
